<?xml version="1.0" encoding="utf-8"?>
<!-- Generator: Adobe Illustrator 16.0.0, SVG Export Plug-In . SVG Version: 6.00 Build 0)  -->
<!DOCTYPE svg PUBLIC "-//W3C//DTD SVG 1.1//EN" "http://www.w3.org/Graphics/SVG/1.1/DTD/svg11.dtd">
<svg version="1.1" id="Layer_1" xmlns="http://www.w3.org/2000/svg" xmlns:xlink="http://www.w3.org/1999/xlink" x="0px" y="0px"
	 width="500px" height="500px" viewBox="0 0 500 500" enable-background="new 0 0 500 500" xml:space="preserve">
<g id="c8uXOz.tif">
	<g>
		<path fill="#FCBA70" d="M2,414.688C2,304.896,2,195.104,2,85.312c0.35-1.039,0.848-2.053,1.026-3.121
			C9.069,46.124,29.078,21.237,63.093,7.935C70.188,5.16,77.89,3.938,85.312,2c109.792,0,219.584,0,329.375,0
			c1.039,0.35,2.053,0.848,3.12,1.026c36.069,6.043,60.954,26.051,74.258,60.067c2.774,7.095,3.997,14.797,5.935,22.219
			c0,109.792,0,219.584,0,329.375c-0.349,1.039-0.848,2.053-1.026,3.12c-6.042,36.069-26.052,60.954-60.067,74.258
			c-7.095,2.774-14.796,3.997-22.219,5.935c-109.791,0-219.583,0-329.375,0c-1.039-0.349-2.053-0.848-3.121-1.026
			c-36.068-6.042-60.955-26.052-74.257-60.067C5.16,429.812,3.938,422.11,2,414.688z M40.061,250
			c0,50.213-0.032,100.427,0.049,150.64c0.008,4.981,0.182,10.068,1.169,14.926c5.538,27.241,27.636,44.353,57.111,44.361
			c101.073,0.031,202.146,0.027,303.219-0.036c4.658-0.003,9.412-0.232,13.958-1.161c27.236-5.562,44.351-27.645,44.359-57.12
			c0.031-101.072,0.027-202.146-0.036-303.218c-0.003-4.658-0.233-9.413-1.161-13.959c-5.453-26.727-27.259-44.28-55.667-44.317
			c-102.041-0.13-204.083-0.055-306.125-0.046C86.424,40.07,76.364,42.107,67.33,47.69c-18.627,11.51-27.305,28.477-27.284,50.216
			C40.096,148.604,40.062,199.302,40.061,250z"/>
		<path fill-rule="evenodd" clip-rule="evenodd" fill="#FCBA70" d="M206.143,318.987c1.86-2.591,2.908-3.982,3.885-5.424
			c47.898-70.633,95.79-141.271,143.683-211.909c8.901-13.127,18.233-14.88,31.449-5.91c8.41,5.708,16.851,11.371,25.215,17.144
			c10.885,7.512,12.816,17.399,5.393,28.357c-59.084,87.219-118.174,174.434-177.35,261.591
			c-11.842,17.441-28.948,19.496-45.102,5.784c-1.474-1.25-2.865-2.606-4.233-3.975c-33.449-33.443-66.893-66.892-100.331-100.346
			c-10.616-10.621-10.646-20.369-0.117-30.942c6.835-6.863,13.674-13.722,20.519-20.576c11.309-11.324,20.754-11.378,31.966-0.171
			c20.551,20.543,41.107,41.083,61.617,61.668C203.973,315.52,204.826,317.143,206.143,318.987z"/>
	</g>
</g>
<rect x="538.93" y="161.832" fill="#FCBA70" width="118.973" height="80.842"/>
</svg>
