<?xml version="1.0" encoding="utf-8"?>
<!-- Generator: Adobe Illustrator 16.0.0, SVG Export Plug-In . SVG Version: 6.00 Build 0)  -->
<!DOCTYPE svg PUBLIC "-//W3C//DTD SVG 1.1//EN" "http://www.w3.org/Graphics/SVG/1.1/DTD/svg11.dtd">
<svg version="1.1" id="Layer_1" xmlns="http://www.w3.org/2000/svg" xmlns:xlink="http://www.w3.org/1999/xlink" x="0px" y="0px"
	 width="3053.39px" height="500px" viewBox="0 0 3053.39 500" enable-background="new 0 0 3053.39 500" xml:space="preserve">
<g id="c8uXOz.tif">
	<g>
		<path fill="#FCBA70" d="M1278.695,416.688c0-109.791,0-219.583,0-329.375c0.35-1.039,0.848-2.053,1.026-3.121
			c6.043-36.068,26.051-60.955,60.066-74.257c7.095-2.775,14.797-3.997,22.22-5.935c109.792,0,219.584,0,329.375,0
			c1.039,0.35,2.053,0.848,3.12,1.026c36.069,6.043,60.954,26.051,74.258,60.067c2.774,7.095,3.997,14.797,5.935,22.219
			c0,109.792,0,219.584,0,329.375c-0.349,1.039-0.848,2.053-1.026,3.12c-6.042,36.069-26.052,60.954-60.067,74.258
			c-7.095,2.774-14.796,3.997-22.219,5.935c-109.791,0-219.583,0-329.375,0c-1.039-0.349-2.053-0.848-3.121-1.026
			c-36.067-6.042-60.954-26.052-74.257-60.067C1281.854,431.812,1280.632,424.11,1278.695,416.688z M1316.755,252
			c0,50.213-0.031,100.427,0.05,150.64c0.008,4.981,0.182,10.068,1.169,14.926c5.538,27.241,27.636,44.353,57.11,44.361
			c101.073,0.031,202.146,0.027,303.22-0.036c4.658-0.003,9.412-0.232,13.958-1.161c27.236-5.562,44.351-27.645,44.359-57.12
			c0.031-101.072,0.027-202.146-0.036-303.218c-0.003-4.658-0.233-9.413-1.161-13.959c-5.453-26.727-27.259-44.28-55.667-44.317
			c-102.041-0.13-204.083-0.055-306.125-0.046c-10.514,0.001-20.573,2.038-29.608,7.621c-18.627,11.51-27.305,28.477-27.283,50.216
			C1316.791,150.604,1316.756,201.302,1316.755,252z"/>
		<path fill-rule="evenodd" clip-rule="evenodd" fill="#FCBA70" d="M1482.837,320.987c1.859-2.591,2.908-3.982,3.885-5.424
			c47.898-70.633,95.79-141.271,143.684-211.909c8.901-13.127,18.233-14.88,31.449-5.91c8.41,5.708,16.851,11.371,25.215,17.144
			c10.885,7.512,12.816,17.399,5.393,28.357c-59.084,87.219-118.174,174.434-177.35,261.591
			c-11.843,17.441-28.948,19.496-45.103,5.784c-1.474-1.25-2.864-2.606-4.233-3.975c-33.449-33.443-66.893-66.892-100.331-100.346
			c-10.616-10.621-10.646-20.369-0.117-30.942c6.835-6.863,13.674-13.722,20.519-20.576c11.31-11.324,20.755-11.378,31.966-0.171
			c20.552,20.543,41.107,41.083,61.617,61.668C1480.667,317.52,1481.521,319.143,1482.837,320.987z"/>
	</g>
</g>
<g>
	<line fill="none" stroke="#FCBA70" stroke-width="60" stroke-miterlimit="10" x1="110.978" y1="250" x2="1178.765" y2="250"/>
	<line fill="none" stroke="#FCBA70" stroke-width="60" stroke-miterlimit="10" x1="1874.625" y1="250" x2="2942.412" y2="250"/>
</g>
</svg>
