<?xml version="1.0" encoding="utf-8"?>
<!-- Generator: Adobe Illustrator 16.0.0, SVG Export Plug-In . SVG Version: 6.00 Build 0)  -->
<!DOCTYPE svg PUBLIC "-//W3C//DTD SVG 1.1//EN" "http://www.w3.org/Graphics/SVG/1.1/DTD/svg11.dtd">
<svg version="1.1" id="Layer_1" xmlns="http://www.w3.org/2000/svg" xmlns:xlink="http://www.w3.org/1999/xlink" x="0px" y="0px"
	 width="1441px" height="80px" viewBox="0 0 1441 80" enable-background="new 0 0 1441 80" xml:space="preserve">
<g id="D5yRQI.tif">
	<g>
		<g>
			<path fill-rule="evenodd" clip-rule="evenodd" fill="#FCBA70" d="M446.925,39.819c0.05-5.282,4.078-9.243,9.383-9.229
				c5.101,0.015,9.406,4.31,9.431,9.409c0.023,5.069-4.308,9.394-9.425,9.412C450.895,49.43,446.874,45.321,446.925,39.819z"/>
			<path fill-rule="evenodd" clip-rule="evenodd" fill="#FCBA70" d="M239.029,39.821c0.049,5.412-3.802,9.489-9.062,9.59
				c-5.296,0.103-9.793-4.222-9.782-9.408c0.01-5.097,4.274-9.359,9.419-9.413C234.879,30.536,238.981,34.552,239.029,39.821z"/>
			<path fill-rule="evenodd" clip-rule="evenodd" fill="#FCBA70" d="M767.558,40.098c-0.025,5.305-4.06,9.332-9.332,9.315
				c-5.116-0.018-9.455-4.278-9.508-9.338c-0.055-5.184,4.423-9.568,9.688-9.486C763.66,30.671,767.583,34.749,767.558,40.098z"/>
			<path fill-rule="evenodd" clip-rule="evenodd" fill="#FCBA70" d="M484.631,40.059c-0.022-5.264,4-9.401,9.207-9.469
				c5.271-0.069,9.721,4.325,9.635,9.516c-0.085,5.132-4.357,9.313-9.508,9.306C488.755,49.402,484.651,45.292,484.631,40.059z"/>
			<path fill-rule="evenodd" clip-rule="evenodd" fill="#FCBA70" d="M805.249,40.1c-0.026,5.351-4.005,9.337-9.293,9.31
				c-5.1-0.025-9.501-4.347-9.502-9.333c-0.003-5.217,4.429-9.556,9.688-9.487C801.377,30.66,805.276,34.731,805.249,40.1z"/>
			<path fill-rule="evenodd" clip-rule="evenodd" fill="#FCBA70" d="M729.837,40.149c-0.05,5.233-4.162,9.268-9.443,9.262
				c-5.091-0.005-9.405-4.324-9.394-9.404c0.011-5.275,4.392-9.53,9.694-9.417C725.92,30.702,729.886,34.848,729.837,40.149z"/>
			<path fill-rule="evenodd" clip-rule="evenodd" fill="#FCBA70" d="M276.721,40.143c-0.029,5.318-4.055,9.317-9.336,9.269
				c-5.125-0.046-9.426-4.319-9.453-9.393c-0.028-5.182,4.453-9.522,9.736-9.428C272.935,30.684,276.751,34.71,276.721,40.143z"/>
			<path fill-rule="evenodd" clip-rule="evenodd" fill="#FCBA70" d="M201.313,40.053c-0.013,5.274-4.106,9.373-9.344,9.357
				c-5.156-0.016-9.435-4.205-9.494-9.294c-0.061-5.26,4.289-9.582,9.588-9.526C197.297,30.644,201.327,34.768,201.313,40.053z"/>
			<path fill-rule="evenodd" clip-rule="evenodd" fill="#FCBA70" d="M522.358,40.048c-0.013-5.265,4.017-9.392,9.233-9.458
				c5.326-0.067,9.643,4.226,9.577,9.525c-0.062,5.157-4.301,9.315-9.476,9.296C526.46,49.391,522.37,45.288,522.358,40.048z"/>
			<path fill-rule="evenodd" clip-rule="evenodd" fill="#FCBA70" d="M314.562,40.166c-0.069,5.252-4.185,9.289-9.428,9.245
				c-5.361-0.043-9.407-4.3-9.272-9.75c0.129-5.173,4.372-9.178,9.608-9.069C310.662,30.7,314.631,34.88,314.562,40.166z"/>
			<path fill-rule="evenodd" clip-rule="evenodd" fill="#FCBA70" d="M390.098,39.954c0.011,5.255-4.045,9.398-9.258,9.456
				c-5.367,0.06-9.582-4.161-9.52-9.532c0.06-5.223,4.208-9.311,9.423-9.288C385.953,30.612,390.087,34.75,390.098,39.954z"/>
			<path fill-rule="evenodd" clip-rule="evenodd" fill="#FCBA70" d="M409.219,40.007c0.001-5.333,3.916-9.36,9.154-9.417
				c5.329-0.058,9.541,4.207,9.456,9.576c-0.083,5.225-4.239,9.293-9.445,9.245C413.165,49.362,409.216,45.311,409.219,40.007z"/>
			<path fill-rule="evenodd" clip-rule="evenodd" fill="#FCBA70" d="M560.121,40.008c0.004-5.29,4.018-9.37,9.266-9.418
				c5.31-0.05,9.627,4.272,9.554,9.563c-0.07,5.114-4.358,9.28-9.528,9.256C564.226,49.387,560.117,45.229,560.121,40.008z"/>
			<path fill-rule="evenodd" clip-rule="evenodd" fill="#FCBA70" d="M88.124,40.167c-0.058,5.148-4.325,9.301-9.494,9.242
				c-5.234-0.059-9.331-4.188-9.329-9.399c0.002-5.38,4.233-9.512,9.643-9.419C84.095,30.681,88.182,34.945,88.124,40.167z"/>
			<path fill-rule="evenodd" clip-rule="evenodd" fill="#FCBA70" d="M31.597,40.078c-0.023-5.437,4.116-9.55,9.546-9.487
				c5.117,0.061,9.322,4.375,9.271,9.51c-0.051,5.14-4.31,9.331-9.459,9.311C35.693,49.391,31.619,45.326,31.597,40.078z"/>
			<path fill-rule="evenodd" clip-rule="evenodd" fill="#FCBA70" d="M352.322,39.878c0.025,5.291-3.975,9.451-9.168,9.533
				c-5.361,0.084-9.577-4.077-9.593-9.466c-0.014-5.155,4.151-9.319,9.362-9.355C348.1,30.552,352.297,34.701,352.322,39.878z"/>
			<path fill-rule="evenodd" clip-rule="evenodd" fill="#FCBA70" d="M163.532,39.939c0.026,5.292-4.002,9.441-9.195,9.471
				c-5.334,0.031-9.679-4.275-9.601-9.519c0.077-5.166,4.281-9.296,9.472-9.301C159.418,30.584,163.506,34.683,163.532,39.939z"/>
			<path fill-rule="evenodd" clip-rule="evenodd" fill="#FCBA70" d="M616.646,40.15c-0.05,5.133-4.304,9.285-9.49,9.261
				c-5.178-0.023-9.343-4.219-9.329-9.398c0.014-5.376,4.284-9.558,9.625-9.423C612.663,30.719,616.696,34.914,616.646,40.15z"/>
			<path fill-rule="evenodd" clip-rule="evenodd" fill="#FCBA70" d="M692.076,40.194c-0.049,5.168-4.254,9.258-9.479,9.217
				c-5.106-0.04-9.335-4.328-9.311-9.44c0.027-5.292,4.394-9.513,9.705-9.38C688.188,30.719,692.127,34.885,692.076,40.194z"/>
			<path fill-rule="evenodd" clip-rule="evenodd" fill="#FCBA70" d="M654.353,39.845c0.076,5.238-3.95,9.445-9.156,9.566
				c-5.316,0.123-9.678-4.133-9.665-9.432c0.012-5.185,4.196-9.385,9.354-9.39C650.161,30.583,654.275,34.606,654.353,39.845z"/>
			<path fill-rule="evenodd" clip-rule="evenodd" fill="#FCBA70" d="M116.427,49.409c-5.215-0.034-9.387-4.174-9.421-9.344
				c-0.035-5.312,4.273-9.555,9.623-9.474c5.221,0.08,9.231,4.229,9.199,9.518C125.796,45.318,121.625,49.446,116.427,49.409z"/>
		</g>
		<g>
			<path fill-rule="evenodd" clip-rule="evenodd" fill="#FCBA70" d="M1239.682,39.819c0.05-5.282,4.078-9.243,9.383-9.229
				c5.101,0.015,9.406,4.31,9.431,9.409c0.023,5.07-4.308,9.394-9.425,9.412C1243.651,49.431,1239.631,45.321,1239.682,39.819z"/>
			<path fill-rule="evenodd" clip-rule="evenodd" fill="#FCBA70" d="M1031.785,39.821c0.05,5.413-3.802,9.489-9.062,9.59
				c-5.296,0.104-9.793-4.221-9.782-9.408c0.01-5.097,4.274-9.359,9.42-9.413C1027.636,30.536,1031.738,34.552,1031.785,39.821z"/>
			<path fill-rule="evenodd" clip-rule="evenodd" fill="#FCBA70" d="M1277.388,40.059c-0.022-5.264,4-9.401,9.207-9.469
				c5.271-0.069,9.721,4.325,9.635,9.516c-0.085,5.132-4.357,9.313-9.508,9.306C1281.512,49.403,1277.408,45.292,1277.388,40.059z"
				/>
			<path fill-rule="evenodd" clip-rule="evenodd" fill="#FCBA70" d="M1069.478,40.143c-0.028,5.319-4.056,9.317-9.337,9.269
				c-5.124-0.045-9.426-4.318-9.452-9.393c-0.028-5.182,4.453-9.522,9.736-9.428C1065.691,30.684,1069.508,34.71,1069.478,40.143z"
				/>
			<path fill-rule="evenodd" clip-rule="evenodd" fill="#FCBA70" d="M994.07,40.053c-0.014,5.274-4.106,9.374-9.344,9.358
				c-5.156-0.016-9.436-4.205-9.494-9.295c-0.061-5.26,4.289-9.582,9.588-9.526C990.053,30.644,994.083,34.768,994.07,40.053z"/>
			<path fill-rule="evenodd" clip-rule="evenodd" fill="#FCBA70" d="M1315.115,40.048c-0.013-5.265,4.017-9.392,9.233-9.458
				c5.326-0.067,9.643,4.226,9.577,9.525c-0.062,5.157-4.301,9.315-9.476,9.296C1319.217,49.392,1315.127,45.288,1315.115,40.048z"
				/>
			<path fill-rule="evenodd" clip-rule="evenodd" fill="#FCBA70" d="M1107.318,40.166c-0.069,5.253-4.186,9.289-9.428,9.246
				c-5.361-0.043-9.408-4.301-9.272-9.751c0.129-5.173,4.372-9.178,9.608-9.069C1103.418,30.7,1107.388,34.88,1107.318,40.166z"/>
			<path fill-rule="evenodd" clip-rule="evenodd" fill="#FCBA70" d="M1182.854,39.954c0.012,5.256-4.045,9.399-9.258,9.456
				c-5.366,0.061-9.581-4.16-9.52-9.532c0.06-5.223,4.207-9.311,9.423-9.288C1178.709,30.612,1182.844,34.75,1182.854,39.954z"/>
			<path fill-rule="evenodd" clip-rule="evenodd" fill="#FCBA70" d="M1201.976,40.007c0.001-5.333,3.916-9.36,9.154-9.417
				c5.329-0.058,9.541,4.207,9.456,9.576c-0.083,5.225-4.239,9.293-9.445,9.245C1205.922,49.362,1201.973,45.312,1201.976,40.007z"
				/>
			<path fill-rule="evenodd" clip-rule="evenodd" fill="#FCBA70" d="M1352.878,40.008c0.004-5.29,4.018-9.37,9.266-9.418
				c5.31-0.05,9.627,4.272,9.554,9.563c-0.07,5.115-4.358,9.281-9.528,9.257C1356.982,49.388,1352.874,45.229,1352.878,40.008z"/>
			<path fill-rule="evenodd" clip-rule="evenodd" fill="#FCBA70" d="M880.881,40.167c-0.059,5.148-4.325,9.302-9.494,9.242
				c-5.234-0.059-9.332-4.188-9.33-9.399c0.003-5.38,4.233-9.512,9.643-9.419C876.852,30.681,880.938,34.945,880.881,40.167z"/>
			<path fill-rule="evenodd" clip-rule="evenodd" fill="#FCBA70" d="M824.354,40.078c-0.023-5.437,4.115-9.55,9.546-9.487
				c5.117,0.061,9.322,4.375,9.271,9.51c-0.051,5.141-4.311,9.332-9.459,9.311C828.449,49.392,824.375,45.327,824.354,40.078z"/>
			<path fill-rule="evenodd" clip-rule="evenodd" fill="#FCBA70" d="M1145.078,39.878c0.025,5.291-3.975,9.451-9.168,9.533
				c-5.361,0.084-9.577-4.076-9.594-9.466c-0.014-5.155,4.151-9.319,9.362-9.355C1140.855,30.552,1145.054,34.701,1145.078,39.878z"
				/>
			<path fill-rule="evenodd" clip-rule="evenodd" fill="#FCBA70" d="M956.289,39.939c0.025,5.292-4.003,9.441-9.195,9.472
				c-5.335,0.031-9.68-4.275-9.602-9.52c0.077-5.166,4.281-9.296,9.473-9.301C952.175,30.584,956.262,34.683,956.289,39.939z"/>
			<path fill-rule="evenodd" clip-rule="evenodd" fill="#FCBA70" d="M1409.402,40.15c-0.05,5.134-4.304,9.285-9.49,9.261
				c-5.178-0.023-9.343-4.219-9.329-9.398c0.014-5.376,4.284-9.558,9.625-9.423C1405.42,30.719,1409.453,34.914,1409.402,40.15z"/>
			<path fill-rule="evenodd" clip-rule="evenodd" fill="#FCBA70" d="M909.184,49.409c-5.215-0.033-9.387-4.174-9.422-9.344
				c-0.035-5.312,4.273-9.555,9.623-9.474c5.222,0.08,9.232,4.229,9.199,9.518C918.553,45.319,914.381,49.446,909.184,49.409z"/>
		</g>
	</g>
	<g id="c8uXOz.tif">
		<g>
			<path fill="#FCBA70" d="M156.49-135.688c0-109.791,0-219.583,0-329.375c0.35-1.039,0.848-2.053,1.026-3.121
				c6.043-36.068,26.051-60.955,60.066-74.257c7.095-2.775,14.797-3.997,22.22-5.935c109.792,0,219.584,0,329.375,0
				c1.039,0.35,2.053,0.848,3.119,1.026c36.07,6.043,60.955,26.051,74.258,60.067c2.775,7.095,3.998,14.797,5.936,22.219
				c0,109.792,0,219.584,0,329.375c-0.35,1.039-0.848,2.053-1.027,3.12c-6.041,36.069-26.051,60.954-60.066,74.258
				c-7.096,2.774-14.797,3.997-22.219,5.935c-109.791,0-219.583,0-329.375,0c-1.039-0.349-2.053-0.848-3.121-1.026
				c-36.067-6.042-60.954-26.052-74.257-60.067C159.649-120.564,158.427-128.266,156.49-135.688z M194.55-300.376
				c0,50.213-0.031,100.427,0.05,150.64c0.008,4.981,0.182,10.068,1.169,14.926c5.538,27.241,27.636,44.353,57.11,44.361
				c101.073,0.031,202.146,0.027,303.22-0.036c4.658-0.003,9.412-0.232,13.957-1.161c27.236-5.562,44.352-27.645,44.359-57.12
				c0.031-101.072,0.027-202.146-0.035-303.218c-0.004-4.658-0.234-9.413-1.162-13.959c-5.453-26.727-27.258-44.28-55.666-44.317
				c-102.041-0.13-204.083-0.055-306.125-0.046c-10.514,0.001-20.573,2.038-29.608,7.621c-18.627,11.51-27.305,28.477-27.283,50.216
				C194.585-401.772,194.551-351.074,194.55-300.376z"/>
			<path fill-rule="evenodd" clip-rule="evenodd" fill="#FCBA70" d="M360.632-231.389c1.859-2.591,2.908-3.982,3.885-5.424
				c47.899-70.633,95.79-141.271,143.684-211.909c8.9-13.127,18.232-14.88,31.449-5.91c8.41,5.708,16.85,11.371,25.215,17.144
				c10.885,7.512,12.816,17.399,5.393,28.357c-59.084,87.22-118.174,174.434-177.35,261.591
				c-11.843,17.441-28.948,19.496-45.103,5.784c-1.474-1.25-2.864-2.606-4.233-3.975c-33.449-33.443-66.893-66.892-100.331-100.346
				c-10.616-10.621-10.646-20.369-0.117-30.942c6.835-6.863,13.674-13.722,20.519-20.576c11.31-11.324,20.755-11.378,31.966-0.171
				c20.552,20.543,41.107,41.083,61.617,61.668C358.462-234.856,359.316-233.233,360.632-231.389z"/>
		</g>
	</g>
</g>
</svg>
