<?xml version="1.0" encoding="utf-8"?>
<!-- Generator: Adobe Illustrator 16.0.0, SVG Export Plug-In . SVG Version: 6.00 Build 0)  -->
<!DOCTYPE svg PUBLIC "-//W3C//DTD SVG 1.1//EN" "http://www.w3.org/Graphics/SVG/1.1/DTD/svg11.dtd">
<svg version="1.1" id="Layer_1" xmlns="http://www.w3.org/2000/svg" xmlns:xlink="http://www.w3.org/1999/xlink" x="0px" y="0px"
	 width="500px" height="500px" viewBox="0 0 500 500" enable-background="new 0 0 500 500" xml:space="preserve">
<g id="TOlUx1.tif" opacity="0.5">
	<g>
		<path fill-rule="evenodd" clip-rule="evenodd" fill="#B9BEC0" d="M495.271,479.572c-2.21,5.401-4.188,10.984-10.054,13.688
			c-2.1,0.967-4.247,1.829-6.374,2.74c-1.289,0-2.577,0-3.865,0c-2.602-0.722-5.213-1.41-7.803-2.173
			c-44.403-13.057-88.742-26.338-133.249-39.03c-10.858-3.097-19.56-8.174-27.631-16.242
			c-65.838-65.81-132.066-131.228-198.215-196.726c-1.354-1.34-3.172-2.21-3.99-2.768c44.518-44.425,88.107-87.925,132.355-132.081
			c0.614,0.819,1.521,2.403,2.77,3.642c47.794,47.412,95.622,94.789,143.437,142.177c19.333,19.16,38.42,38.574,58.107,57.363
			c6.126,5.847,10.232,12.168,11.955,20.287c0.467,2.194,1.26,4.319,1.889,6.479c13.557,46.58,27.113,93.162,40.668,139.744
			C495.271,477.639,495.271,478.605,495.271,479.572z M385.192,356.663c-8.61,0.836-17.247,1.424-26.31,2.157
			c-0.639,10.324-1.263,20.39-1.882,30.456c-0.03,0.481-0.044,0.965-0.026,1.447c0.365,10.28-1.041,19.825-10.699,25.985
			c-0.392,0.249-0.691,0.675-0.967,1.067c-0.17,0.243-0.213,0.577-0.512,1.453c6.398,1.878,12.778,3.745,19.154,5.619
			c18.785,5.524,37.589,10.988,56.334,16.644c3.021,0.913,5.039,0.519,7.193-1.835c3.905-4.269,8.27-8.116,12.137-12.415
			c1.057-1.175,1.793-3.552,1.375-5.004c-7.268-25.298-14.738-50.537-22.184-75.783c-0.076-0.262-0.395-0.451-0.912-1.009
			C409.623,357.454,396.867,355.528,385.192,356.663z"/>
		<path fill-rule="evenodd" clip-rule="evenodd" fill="#B9BEC0" d="M164.549,38.907c-8.477-7.812-16.578-17.038-26.346-23.885
			c-16.013-11.221-37.461-9.871-51.795,3.653C63.354,40.427,40.724,62.704,19.093,85.86c-16.432,17.59-15.825,40.856-0.005,59.01
			c6.202,7.117,13.729,13.079,20.223,19.165C80.344,123.038,122.084,81.334,164.549,38.907z"/>
		<path fill-rule="evenodd" clip-rule="evenodd" fill="#B9BEC0" d="M215.219,84.862c-9.264-8.688-18.982-17.802-28.275-26.517
			C143.24,102.054,99.8,145.498,55.843,189.461c9.079,8.548,18.85,17.745,28.218,26.564
			C127.782,172.301,171.315,128.766,215.219,84.862z"/>
	</g>
</g>
</svg>
