<?xml version="1.0" encoding="utf-8"?>
<!-- Generator: Adobe Illustrator 16.0.0, SVG Export Plug-In . SVG Version: 6.00 Build 0)  -->
<!DOCTYPE svg PUBLIC "-//W3C//DTD SVG 1.1//EN" "http://www.w3.org/Graphics/SVG/1.1/DTD/svg11.dtd">
<svg version="1.1" id="Layer_1" xmlns="http://www.w3.org/2000/svg" xmlns:xlink="http://www.w3.org/1999/xlink" x="0px" y="0px"
	 width="500px" height="500px" viewBox="0 0 500 500" enable-background="new 0 0 500 500" xml:space="preserve">
<g id="TOlUx1.tif" opacity="0.3">
	<g>
		<path fill="#727171" d="M495.271,479.572c-2.211,5.4-4.188,10.983-10.055,13.688c-2.1,0.967-4.247,1.829-6.374,2.74
			c-1.289,0-2.577,0-3.864,0c-2.603-0.722-5.214-1.41-7.804-2.173c-44.402-13.058-88.741-26.338-133.249-39.03
			c-10.857-3.097-19.56-8.174-27.631-16.242c-65.838-65.81-132.066-131.228-198.215-196.726c-1.354-1.34-3.172-2.21-3.99-2.768
			c44.518-44.425,88.107-87.925,132.355-132.081c0.614,0.819,1.521,2.403,2.77,3.642c47.794,47.412,95.622,94.789,143.438,142.177
			c19.333,19.16,38.42,38.574,58.106,57.363c6.126,5.847,10.232,12.168,11.955,20.287c0.467,2.193,1.26,4.318,1.889,6.479
			c13.558,46.58,27.113,93.162,40.669,139.744C495.271,477.639,495.271,478.605,495.271,479.572z M385.191,356.663
			c-8.609,0.836-17.246,1.424-26.31,2.157c-0.639,10.323-1.263,20.39-1.882,30.456c-0.029,0.48-0.044,0.965-0.025,1.446
			c0.364,10.28-1.041,19.825-10.699,25.985c-0.393,0.249-0.691,0.675-0.967,1.067c-0.17,0.242-0.214,0.576-0.513,1.452
			c6.397,1.879,12.778,3.745,19.154,5.619c18.784,5.524,37.589,10.988,56.334,16.645c3.021,0.913,5.039,0.519,7.192-1.835
			c3.905-4.27,8.271-8.116,12.138-12.415c1.057-1.175,1.793-3.552,1.375-5.004c-7.269-25.298-14.738-50.537-22.185-75.783
			c-0.076-0.262-0.395-0.451-0.912-1.009C409.623,357.454,396.867,355.528,385.191,356.663z"/>
		<path fill="#727171" d="M164.549,38.907c-8.477-7.812-16.578-17.038-26.346-23.885c-16.013-11.221-37.461-9.871-51.795,3.653
			C63.354,40.427,40.724,62.704,19.093,85.86c-16.432,17.59-15.825,40.856-0.005,59.01c6.202,7.117,13.729,13.079,20.223,19.165
			C80.344,123.038,122.084,81.334,164.549,38.907z"/>
		<path fill="#727171" d="M215.219,84.862c-9.264-8.688-18.982-17.802-28.275-26.517C143.24,102.054,99.8,145.498,55.843,189.461
			c9.079,8.548,18.85,17.745,28.218,26.564C127.782,172.301,171.315,128.766,215.219,84.862z"/>
	</g>
</g>
<path fill="#FCBA70" d="M675.356,281.134c1.858-2.591,2.907-3.981,3.885-5.424c47.897-70.633,95.789-141.271,143.684-211.909
	c8.9-13.127,18.232-14.88,31.449-5.91c8.41,5.708,16.85,11.371,25.215,17.144c10.885,7.512,12.816,17.399,5.394,28.357
	c-59.084,87.22-118.175,174.434-177.351,261.591c-11.844,17.44-28.948,19.495-45.104,5.783c-1.474-1.25-2.863-2.605-4.232-3.975
	c-33.449-33.443-66.893-66.892-100.332-100.347c-10.614-10.62-10.645-20.368-0.117-30.941c6.837-6.863,13.675-13.722,20.521-20.576
	c11.309-11.324,20.754-11.378,31.965-0.171c20.553,20.543,41.107,41.083,61.617,61.668
	C673.188,277.666,674.04,279.289,675.356,281.134z"/>
</svg>
