<?xml version="1.0" encoding="utf-8"?>
<!-- Generator: Adobe Illustrator 16.0.0, SVG Export Plug-In . SVG Version: 6.00 Build 0)  -->
<!DOCTYPE svg PUBLIC "-//W3C//DTD SVG 1.1//EN" "http://www.w3.org/Graphics/SVG/1.1/DTD/svg11.dtd">
<svg version="1.1" id="Layer_1" xmlns="http://www.w3.org/2000/svg" xmlns:xlink="http://www.w3.org/1999/xlink" x="0px" y="0px"
	 width="200px" height="200px" viewBox="0 0 200 200" enable-background="new 0 0 200 200" xml:space="preserve">
<path id="Shield" fill="none" stroke="#FAAD5A" stroke-width="8" stroke-miterlimit="10" d="M98.726,193.435l-40.994-28.568
	c-20.494-14.282-32.708-37.7-32.708-62.656V35.994c0-0.636,0.264-1.273,0.743-1.697c10.406-9.027,66.904-26.125,73.596-28.09
	c0.425-0.105,0.847-0.105,1.274,0c6.69,2.018,63.188,19.062,73.595,28.09c0.48,0.424,0.742,1.062,0.742,1.697v66.216
	c0,24.956-12.213,48.374-32.707,62.656l-40.993,28.568C100.533,194.019,99.469,194.019,98.726,193.435"/>
<g id="Logo">
	<path fill="#FAAD5A" d="M129.975,82.14c-4.781,3.612-11.15,11.576-19.172,7.169c-2.387-1.222-7.963-19.168,11.152-37.914
		c2.391-2.016-2.018-1.591-4.777,1.221c-7.594,8.389-9.984,10.354-13.17,9.983c-2.814-0.423-5.203-2.813-8.761-4.777
		c-6.797-3.983-14.761-5.576-6.001-0.796c19.965,11.575,11.947,31.539,3.983,33.504c-7.966,2.019-17.949-5.204-22.356-7.592
		c-4.405-2.39-7.964-1.222-7.964-1.222S85.634,97.7,87.281,113.258c2.019,19.963-17.577,32.335-17.577,32.335s58.676,1.595,56.286,0
		c-2.389-1.592-9.982-8.759-11.945-16.777c-3.188-12.374-1.594-20.336,3.186-27.93c4.406-6.797,16.355-17.948,19.168-20.338
		C141.123,77.361,133.531,79.751,129.975,82.14"/>
	<path fill="#FAAD5A" d="M68.485,72.954c-0.797,3.187-2.816,5.206-5.577,6.796c-2.02-2.388-3.186-4.778-2.388-7.963
		c0.794-3.186,2.813-5.206,5.574-7.168C67.688,67.378,68.911,69.768,68.485,72.954"/>
	<path fill="#FAAD5A" d="M119.195,41.042c2.018,2.39,2.018,4.408,2.018,7.167c-2.814-0.423-4.777-1.22-6.797-3.184
		c-2.016-2.39-2.016-4.779-2.016-7.169C115.211,38.226,117.178,38.599,119.195,41.042"/>
	<path fill="#FAAD5A" d="M79.689,62.175c-2.39,2.019-4.78,2.019-7.596,2.391c0.426-2.391,0.799-4.408,3.188-6.372
		c2.391-1.965,4.78-2.018,7.594-2.391C82.45,58.563,82.079,60.583,79.689,62.175"/>
	<path fill="#FAAD5A" d="M79.689,45.821c2.815,2.018,3.611,4.407,4.407,7.169c-3.186,0.423-5.576,0-8.391-1.594
		c-2.813-2.018-3.612-4.408-4.405-7.169C74.483,43.803,76.874,44.228,79.689,45.821"/>
	<path fill="#FAAD5A" d="M51.706,81.716c-3.187-1.594-4.78-3.983-6.373-7.167c3.186-1.222,5.576-2.017,9.187-0.425
		c3.184,1.593,4.777,3.98,6.37,7.167C57.705,82.141,54.944,82.938,51.706,81.716"/>
	<path fill="#FAAD5A" d="M61.316,92.919c-1.593,3.611-3.983,5.205-7.169,6.795c-1.219-3.609-1.593-6.37,0-9.981
		c1.593-3.609,3.983-5.203,7.169-6.371C62.485,86.496,62.911,89.308,61.316,92.919"/>
	<path fill="#FAAD5A" d="M148.717,74.548c-2.389,2.389-4.777,3.185-7.963,3.61c0-3.186,0.424-5.576,2.814-7.965
		c2.391-2.391,4.779-3.187,7.965-3.61C151.533,69.345,151.107,72.157,148.717,74.548"/>
	<path fill="#FAAD5A" d="M130.771,45.397c-2.02,2.017-4.408,2.814-7.596,3.185c-0.422-2.39-0.422-3.982,1.598-6
		c2.016-2.016,4.404-2.813,7.592-3.184C132.736,41.838,132.736,43.432,130.771,45.397"/>
	<path fill="#FAAD5A" d="M92.857,45.024c-1.221,2.816-3.186,4.408-5.576,5.999c-1.221-2.813-2.019-5.202-0.796-7.963
		c1.221-3.186,3.186-4.408,5.576-5.999C92.857,39.396,93.654,41.838,92.857,45.024"/>
	<path fill="#FAAD5A" d="M145.904,88.512c-3.186-1.594-4.408-3.983-5.203-7.167c3.186-0.795,5.572-1.221,8.76,0.424
		c3.189,1.593,4.406,4.408,5.207,7.169C151.533,89.734,149.143,90.106,145.904,88.512"/>
	<path fill="#FAAD5A" d="M128.754,57.769c-2.816-1.595-3.611-3.984-4.783-7.169c2.818-0.424,5.209-0.795,7.967,1.221
		c2.814,1.592,3.611,3.982,4.777,7.168C133.955,59.361,131.57,59.361,128.754,57.769"/>
	<path fill="#FAAD5A" d="M137.939,69.768c1.221,2.816,0.795,4.781,0,7.17c-2.391-1.223-4.408-2.39-5.576-4.78
		c-1.221-2.815-0.797-4.78,0-7.592C134.754,65.787,136.771,66.954,137.939,69.768"/>
	<path fill="#FAAD5A" d="M107.193,51.768c0,2.815-2.018,5.204-4.406,5.204c-2.39,0-4.407-2.389-4.407-5.204
		c0-2.815,2.018-5.204,4.407-5.204C105.176,46.564,107.193,49.007,107.193,51.768"/>
	<path fill="#FAAD5A" d="M125.195,79.751c-2.391,2.816-6,3.611-8.387,1.594c-2.391-2.019-2.391-6.001-0.428-8.761
		c2.389-2.815,6-3.611,8.389-1.596C127.16,72.955,127.16,76.936,125.195,79.751"/>
	<path fill="#FAAD5A" d="M91.636,70.937c2.816,3.187,3.187,7.964,0.797,10.779c-2.391,2.815-6.796,2.391-9.559-0.796
		c-2.76-3.188-3.185-7.965-0.795-10.778C84.466,67.378,88.45,67.75,91.636,70.937"/>
</g>
<rect x="-161.071" y="163.832" fill="#FCBA70" width="118.974" height="80.842"/>
</svg>
